<svg width="1280" height="720" viewBox="0 0 1280 720" fill="none" xmlns="http://www.w3.org/2000/svg">
  <defs>
    <linearGradient id="bg" x1="48" y1="44" x2="1224" y2="690" gradientUnits="userSpaceOnUse">
      <stop stop-color="#081223"/>
      <stop offset="1" stop-color="#102A43"/>
    </linearGradient>
    <radialGradient id="glow" cx="0" cy="0" r="1" gradientUnits="userSpaceOnUse" gradientTransform="translate(1046 112) rotate(90) scale(236 280)">
      <stop stop-color="#2563EB" stop-opacity="0.34"/>
      <stop offset="1" stop-color="#2563EB" stop-opacity="0"/>
    </radialGradient>
    <radialGradient id="glow2" cx="0" cy="0" r="1" gradientUnits="userSpaceOnUse" gradientTransform="translate(244 648) rotate(90) scale(190 320)">
      <stop stop-color="#F59E0B" stop-opacity="0.22"/>
      <stop offset="1" stop-color="#F59E0B" stop-opacity="0"/>
    </radialGradient>
    <pattern id="grid" width="40" height="40" patternUnits="userSpaceOnUse">
      <path d="M40 0H0V40" stroke="#FFFFFF" stroke-opacity="0.05"/>
    </pattern>
  </defs>
  <rect width="1280" height="720" rx="30" fill="url(#bg)"/>
  <rect width="1280" height="720" rx="30" fill="url(#grid)"/>
  <ellipse cx="1046" cy="112" rx="280" ry="236" fill="url(#glow)"/>
  <ellipse cx="244" cy="648" rx="320" ry="190" fill="url(#glow2)"/>
  <rect x="56" y="54" width="560" height="612" rx="28" fill="#FFFFFF" fill-opacity="0.05" stroke="#FFFFFF" stroke-opacity="0.14"/>
  <text x="92" y="112" fill="#CBD5E1" font-size="24" font-weight="600" font-family="Segoe UI, Arial, sans-serif">Host-buildable firmware portfolio</text>
  <text x="92" y="176" fill="#F8FAFC" font-size="58" font-weight="700" font-family="Segoe UI, Arial, sans-serif">Embedded Systems</text><text x="92" y="238" fill="#F8FAFC" font-size="58" font-weight="700" font-family="Segoe UI, Arial, sans-serif">Collection</text>
  <text x="92" y="320" fill="#CBD5E1" font-size="24" font-weight="500" font-family="Segoe UI, Arial, sans-serif">Portable C projects spanning BMS, OTA, CAN, diagnostics, control, safety, and protection logic.</text>
  <rect x="92" y="352" width="136" height="38" rx="19" fill="#FFFFFF" fill-opacity="0.08" stroke="#FFFFFF" stroke-opacity="0.16"/><text x="112" y="377" fill="#E2E8F0" font-size="18" font-weight="600" font-family="Segoe UI, Arial, sans-serif">HOST BUILD</text><rect x="242" y="352" width="136" height="38" rx="19" fill="#FFFFFF" fill-opacity="0.08" stroke="#FFFFFF" stroke-opacity="0.16"/><text x="262" y="377" fill="#E2E8F0" font-size="18" font-weight="600" font-family="Segoe UI, Arial, sans-serif">PORTABLE C</text><rect x="392" y="352" width="169" height="38" rx="19" fill="#FFFFFF" fill-opacity="0.08" stroke="#FFFFFF" stroke-opacity="0.16"/><text x="412" y="377" fill="#E2E8F0" font-size="18" font-weight="600" font-family="Segoe UI, Arial, sans-serif">MULTI PROJECT</text>
  <rect x="92" y="450" width="154" height="98" rx="22" fill="#FFFFFF" fill-opacity="0.06" stroke="#FFFFFF" stroke-opacity="0.14"/><text x="112" y="488" fill="#94A3B8" font-size="17" font-weight="600" font-family="Segoe UI, Arial, sans-serif">SCOPE</text><text x="112" y="530" fill="#FFFFFF" font-size="29" font-weight="700" font-family="Segoe UI, Arial, sans-serif">FIRMWARE</text><rect x="262" y="450" width="154" height="98" rx="22" fill="#FFFFFF" fill-opacity="0.06" stroke="#FFFFFF" stroke-opacity="0.14"/><text x="282" y="488" fill="#94A3B8" font-size="17" font-weight="600" font-family="Segoe UI, Arial, sans-serif">SIGNAL</text><text x="282" y="530" fill="#FFFFFF" font-size="29" font-weight="700" font-family="Segoe UI, Arial, sans-serif">REAL SYSTEMS</text><rect x="432" y="450" width="154" height="98" rx="22" fill="#FFFFFF" fill-opacity="0.06" stroke="#FFFFFF" stroke-opacity="0.14"/><text x="452" y="488" fill="#94A3B8" font-size="17" font-weight="600" font-family="Segoe UI, Arial, sans-serif">STACK</text><text x="452" y="530" fill="#FFFFFF" font-size="29" font-weight="700" font-family="Segoe UI, Arial, sans-serif">C + CI</text>
  <rect x="664" y="54" width="560" height="612" rx="28" fill="#FFFFFF" fill-opacity="0.05" stroke="#FFFFFF" stroke-opacity="0.14"/>
  <text x="706" y="106" fill="#E2E8F0" font-size="22" font-weight="600" font-family="Consolas, Menlo, monospace">portfolio.view()</text>
  <text x="706" y="140" fill="#94A3B8" font-size="18" font-weight="500" font-family="Segoe UI, Arial, sans-serif">Structured technical showcase designed for GitHub review.</text>
  <rect x="744" y="180" width="440" height="260" rx="24" fill="#08111F" fill-opacity="0.72" stroke="#FFFFFF" stroke-opacity="0.12"/><path d="M758 190V308H1160" stroke="#F59E0B" stroke-opacity="0.68" stroke-width="6" stroke-linecap="round"/><path d="M820 190V308H1160" stroke="#F59E0B" stroke-opacity="0.68" stroke-width="6" stroke-linecap="round"/><path d="M882 190V308H1160" stroke="#F59E0B" stroke-opacity="0.68" stroke-width="6" stroke-linecap="round"/><path d="M944 190V308H1160" stroke="#F59E0B" stroke-opacity="0.68" stroke-width="6" stroke-linecap="round"/><path d="M1006 190V308H1160" stroke="#F59E0B" stroke-opacity="0.68" stroke-width="6" stroke-linecap="round"/><path d="M1068 190V308H1160" stroke="#F59E0B" stroke-opacity="0.68" stroke-width="6" stroke-linecap="round"/><circle cx="842" cy="256" r="28" fill="#2563EB"/><circle cx="972" cy="330" r="24" fill="#F59E0B"/><rect x="774" y="482" width="136" height="90" rx="18" fill="#0F172A" fill-opacity="0.44" stroke="#FFFFFF" stroke-opacity="0.08"/><rect x="930" y="482" width="136" height="90" rx="18" fill="#0F172A" fill-opacity="0.44" stroke="#FFFFFF" stroke-opacity="0.08"/><rect x="1086" y="482" width="98" height="90" rx="18" fill="#0F172A" fill-opacity="0.44" stroke="#FFFFFF" stroke-opacity="0.08"/><text x="804" y="536" fill="#E2E8F0" font-size="20" font-weight="700" font-family="Segoe UI, Arial, sans-serif">BMS</text><text x="962" y="536" fill="#E2E8F0" font-size="20" font-weight="700" font-family="Segoe UI, Arial, sans-serif">OTA</text><text x="1110" y="536" fill="#E2E8F0" font-size="20" font-weight="700" font-family="Segoe UI, Arial, sans-serif">CAN</text>
</svg>
